# xmcd CD database file
#
# Track frame offsets:
#	150
#	16539
#	35668
#	59987
#	78954
#	98072
#	112090
#	135189
#	163380
#	183496
#	204000
#	234668
#
# Disc length: 3368 seconds
#
# Revision: 2
# Processed by: cddbd v1.5.2PL0 Copyright (c) Steve Scherf et al.
# Submitted via: CDex 1.50
#
DISCID=9a0d260c
DTITLE=Burt Bacharach - The look of Love (A tribute to Burt Bacharach)_Patrick Saussois (g), Rhoda Scott (org), Lucien Dobat (dms)
DYEAR=2009
DGENRE=Jazz
TTITLE0=The look of love
TTITLE1=Alfie
TTITLE2=Walk on by
TTITLE3=Wives and lovers
TTITLE4=Don't make me over
TTITLE5=Raindrops keep falling on my head
TTITLE6=Close to you
TTITLE7=I will never fall in love again
TTITLE8=This girl is in love with you
TTITLE9=What the world needs now is love
TTITLE10=A house is not a home
TTITLE11=Don't go breaking my heart
EXTD=YEAR: 2009
EXTT0=
EXTT1=
EXTT2=
EXTT3=
EXTT4=
EXTT5=
EXTT6=
EXTT7=
EXTT8=
EXTT9=
EXTT10=
EXTT11=
PLAYORDER=
